<svg class="frame frame-2" xmlns="http://www.w3.org/2000/svg" preserveAspectRatio="xMidYMid meet" width="900" height="1800" viewBox="0 0 900 1800">
  <rect class="plant-stalk" x="425" y="1701.35" width="50" height="50" style="fill: #94ca5d"/>
  <rect class="plant-stalk" x="425" y="1651.35" width="50" height="50" style="fill: #94ca5d"/>
  <rect class="plant-stalk" x="425" y="1601.35" width="50" height="50" style="fill: #94ca5d"/>
  <rect class="plant-stalk" x="375" y="1601.35" width="50" height="50" style="fill: #94ca5d"/>
  <rect class="plant-stalk" x="375" y="1551.35" width="50" height="50" style="fill: #94ca5d"/>
  <rect class="plant-stalk" x="375" y="1501.35" width="50" height="50" style="fill: #94ca5d"/>
  <rect class="plant-stalk" x="375" y="1451.35" width="50" height="50" style="fill: #94ca5d"/>
  <rect class="plant-stalk" x="325" y="1451.35" width="50" height="50" style="fill: #94ca5d"/>
  <rect class="plant-stalk" x="325" y="1401.35" width="50" height="50" style="fill: #94ca5d"/>
  <rect class="plant-stalk" x="425" y="1501.35" width="50" height="50" style="fill: #94ca5d"/>
  <rect class="plant-stalk" x="475" y="1501.35" width="50" height="50" style="fill: #94ca5d"/>
  <rect class="plant-stalk" x="525" y="1501.35" width="50" height="50" style="fill: #94ca5d"/>
  <rect class="plant-stalk" x="525" y="1451.35" width="50" height="50" style="fill: #94ca5d"/>
  <rect y="1251.35" width="50" height="50" style="fill: none"/>
  <rect y="1201.35" width="50" height="50" style="fill: none"/>
  <rect y="1301.35" width="50" height="50" style="fill: none"/>
  <rect y="1351.35" width="50" height="50" style="fill: none"/>
  <rect y="1401.35" width="50" height="50" style="fill: none"/>
  <rect y="1451.35" width="50" height="50" style="fill: none"/>
  <rect y="1501.35" width="50" height="50" style="fill: none"/>
  <rect y="1601.35" width="50" height="50" style="fill: none"/>
  <rect y="1551.35" width="50" height="50" style="fill: none"/>
  <rect y="1651.35" width="50" height="50" style="fill: none"/>
  <rect y="1701.35" width="50" height="50" style="fill: none"/>
  <rect y="701.35" width="50" height="50" style="fill: none"/>
  <rect y="651.35" width="50" height="50" style="fill: none"/>
  <rect y="751.35" width="50" height="50" style="fill: none"/>
  <rect y="801.35" width="50" height="50" style="fill: none"/>
  <rect y="851.35" width="50" height="50" style="fill: none"/>
  <rect y="901.35" width="50" height="50" style="fill: none"/>
  <rect y="951.35" width="50" height="50" style="fill: none"/>
  <rect y="1051.35" width="50" height="50" style="fill: none"/>
  <rect y="1001.35" width="50" height="50" style="fill: none"/>
  <rect y="1101.35" width="50" height="50" style="fill: none"/>
  <rect y="1151.35" width="50" height="50" style="fill: none"/>
  <rect y="151.35" width="50" height="50" style="fill: none"/>
  <rect y="101.35" width="50" height="50" style="fill: none"/>
  <rect y="51.35" width="50" height="50" style="fill: none"/>
  <rect y="1.35" width="50" height="50" style="fill: none"/>
  <rect y="201.35" width="50" height="50" style="fill: none"/>
  <rect y="251.35" width="50" height="50" style="fill: none"/>
  <rect y="301.35" width="50" height="50" style="fill: none"/>
  <rect y="351.35" width="50" height="50" style="fill: none"/>
  <rect y="401.35" width="50" height="50" style="fill: none"/>
  <rect y="501.35" width="50" height="50" style="fill: none"/>
  <rect y="451.35" width="50" height="50" style="fill: none"/>
  <rect y="551.35" width="50" height="50" style="fill: none"/>
  <rect y="601.35" width="50" height="50" style="fill: none"/>
  <g>
    <rect x="50" y="1751.35" width="50" height="50" style="fill: none"/>
    <rect y="1751.35" width="50" height="50" style="fill: none"/>
    <rect x="100" y="1751.35" width="50" height="50" style="fill: none"/>
    <rect x="150" y="1751.35" width="50" height="50" style="fill: none"/>
    <rect x="200" y="1751.35" width="50" height="50" style="fill: none"/>
    <rect x="250" y="1751.35" width="50" height="50" style="fill: none"/>
    <rect x="300" y="1751.35" width="50" height="50" style="fill: none"/>
    <rect x="400" y="1751.35" width="50" height="50" style="fill: none"/>
    <rect x="350" y="1751.35" width="50" height="50" style="fill: none"/>
    <rect x="450" y="1751.35" width="50" height="50" style="fill: none"/>
    <rect x="500" y="1751.35" width="50" height="50" style="fill: none"/>
    <rect x="550" y="1751.35" width="50" height="50" style="fill: none"/>
    <rect x="600" y="1751.35" width="50" height="50" style="fill: none"/>
    <rect x="650" y="1751.35" width="50" height="50" style="fill: none"/>
    <rect x="700" y="1751.35" width="50" height="50" style="fill: none"/>
    <rect x="750" y="1751.35" width="50" height="50" style="fill: none"/>
    <rect x="1800" y="1751.35" width="50" height="50" style="fill: none"/>
    <rect x="850" y="1751.35" width="50" height="50" style="fill: none"/>
  </g>
</svg>
