<svg class="frame frame-4" xmlns="http://www.w3.org/2000/svg" preserveAspectRatio="xMidYMid meet" width="900" height="1800" viewBox="0 0 900 1800">
  <rect class="plant-stalk" x="420.93" y="1552.64" width="50" height="50" style="fill: #94ca5d"/>
  <rect class="plant-stalk" x="420.93" y="1602.64" width="50" height="50" style="fill: #94ca5d"/>
  <rect class="plant-stalk" x="370.93" y="1552.64" width="50" height="50" style="fill: #94ca5d"/>
  <rect class="plant-stalk" x="420.93" y="1652.64" width="50" height="50" style="fill: #94ca5d"/>
  <rect class="plant-stalk" x="420.93" y="1702.64" width="50" height="50" style="fill: #94ca5d"/>
  <rect class="plant-stalk" x="420.93" y="1502.64" width="50" height="50" style="fill: #94ca5d"/>
  <rect class="plant-stalk" x="470.93" y="1502.64" width="50" height="50" style="fill: #94ca5d"/>
  <rect class="plant-stalk" x="520.93" y="1502.64" width="50" height="50" style="fill: #94ca5d"/>
  <rect class="plant-stalk" x="570.93" y="1452.64" width="50" height="50" style="fill: #94ca5d"/>
  <rect class="plant-stalk" x="520.93" y="1452.64" width="50" height="50" style="fill: #94ca5d"/>
  <rect class="plant-stalk" x="420.93" y="1452.64" width="50" height="50" style="fill: #94ca5d"/>
  <rect class="plant-stalk" x="420.93" y="1402.64" width="50" height="50" style="fill: #94ca5d"/>
  <rect class="plant-stalk" x="370.93" y="1402.64" width="50" height="50" style="fill: #94ca5d"/>
  <rect class="plant-stalk" x="320.93" y="1402.64" width="50" height="50" style="fill: #94ca5d"/>
  <rect class="plant-stalk" x="270.93" y="1402.64" width="50" height="50" style="fill: #94ca5d"/>
  <rect class="plant-stalk" x="220.93" y="1402.64" width="50" height="50" style="fill: #94ca5d"/>
  <rect class="plant-stalk" x="220.93" y="1352.64" width="50" height="50" style="fill: #94ca5d"/>
  <rect class="plant-stalk" x="170.93" y="1352.64" width="50" height="50" style="fill: #94ca5d"/>
  <rect class="plant-stalk" x="170.93" y="1302.64" width="50" height="50" style="fill: #94ca5d"/>
  <rect class="plant-stalk" x="120.93" y="1302.64" width="50" height="50" style="fill: #94ca5d"/>
  <rect class="plant-stalk" x="370.93" y="1352.64" width="50" height="50" style="fill: #94ca5d"/>
  <rect class="plant-stalk" x="370.93" y="1302.64" width="50" height="50" style="fill: #94ca5d"/>
  <rect class="plant-stalk" x="370.93" y="1252.64" width="50" height="50" style="fill: #94ca5d"/>
  <rect class="plant-stalk" x="370.93" y="1202.64" width="50" height="50" style="fill: #94ca5d"/>
  <rect class="plant-stalk" x="420.93" y="1200.07" width="50" height="50" style="fill: #94ca5d"/>
  <rect class="plant-stalk" x="420.93" y="1150.07" width="50" height="50" style="fill: #94ca5d"/>
  <rect class="plant-stalk" x="420.93" y="1100.07" width="50" height="50" style="fill: #94ca5d"/>
  <rect class="plant-stalk" x="420.93" y="1050.07" width="50" height="50" style="fill: #94ca5d"/>
  <rect class="plant-stalk" x="420.93" y="1000.07" width="50" height="50" style="fill: #94ca5d"/>
  <rect class="plant-stalk" x="370.93" y="1000.07" width="50" height="50" style="fill: #94ca5d"/>
  <rect class="plant-stalk" x="370.93" y="950.07" width="50" height="50" style="fill: #94ca5d"/>
  <rect class="plant-stalk" x="320.93" y="1252.64" width="50" height="50" style="fill: #94ca5d"/>
  <rect class="plant-stalk" x="270.93" y="1252.64" width="50" height="50" style="fill: #94ca5d"/>
  <rect class="plant-stalk" x="270.93" y="1202.64" width="50" height="50" style="fill: #94ca5d"/>
  <rect class="plant-stalk" x="220.93" y="1202.64" width="50" height="50" style="fill: #94ca5d"/>
  <rect class="plant-stalk" x="220.93" y="1157.76" width="50" height="50" style="fill: #94ca5d"/>
  <rect class="plant-stalk" x="220.93" y="1107.76" width="50" height="50" style="fill: #94ca5d"/>
  <rect class="plant-stalk" x="170.93" y="1107.76" width="50" height="50" style="fill: #94ca5d"/>
  <rect class="plant-stalk" x="170.93" y="1057.76" width="50" height="50" style="fill: #94ca5d"/>
  <rect class="plant-stalk" x="420.93" y="1302.64" width="50" height="50" style="fill: #94ca5d"/>
  <rect class="plant-stalk" x="470.93" y="1302.64" width="50" height="50" style="fill: #94ca5d"/>
  <rect class="plant-stalk" x="520.93" y="1302.64" width="50" height="50" style="fill: #94ca5d"/>
  <rect class="plant-stalk" x="520.93" y="1252.64" width="50" height="50" style="fill: #94ca5d"/>
  <rect class="plant-stalk" x="570.93" y="1252.64" width="50" height="50" style="fill: #94ca5d"/>
  <rect class="plant-stalk" x="570.93" y="1202.64" width="50" height="50" style="fill: #94ca5d"/>
  <rect class="plant-stalk" x="620.93" y="1202.64" width="50" height="50" style="fill: #94ca5d"/>
  <rect y="1251.35" width="50" height="50" style="fill: none"/>
  <rect y="1201.35" width="50" height="50" style="fill: none"/>
  <rect y="1301.35" width="50" height="50" style="fill: none"/>
  <rect y="1351.35" width="50" height="50" style="fill: none"/>
  <rect y="1401.35" width="50" height="50" style="fill: none"/>
  <rect y="1451.35" width="50" height="50" style="fill: none"/>
  <rect y="1501.35" width="50" height="50" style="fill: none"/>
  <rect y="1601.35" width="50" height="50" style="fill: none"/>
  <rect y="1551.35" width="50" height="50" style="fill: none"/>
  <rect y="1651.35" width="50" height="50" style="fill: none"/>
  <rect y="1701.35" width="50" height="50" style="fill: none"/>
  <rect y="701.35" width="50" height="50" style="fill: none"/>
  <rect y="651.35" width="50" height="50" style="fill: none"/>
  <rect y="751.35" width="50" height="50" style="fill: none"/>
  <rect y="801.35" width="50" height="50" style="fill: none"/>
  <rect y="851.35" width="50" height="50" style="fill: none"/>
  <rect y="901.35" width="50" height="50" style="fill: none"/>
  <rect y="951.35" width="50" height="50" style="fill: none"/>
  <rect y="1051.35" width="50" height="50" style="fill: none"/>
  <rect y="1001.35" width="50" height="50" style="fill: none"/>
  <rect y="1101.35" width="50" height="50" style="fill: none"/>
  <rect y="1151.35" width="50" height="50" style="fill: none"/>
  <rect y="151.35" width="50" height="50" style="fill: none"/>
  <rect y="101.35" width="50" height="50" style="fill: none"/>
  <rect y="51.35" width="50" height="50" style="fill: none"/>
  <rect y="1.35" width="50" height="50" style="fill: none"/>
  <rect y="201.35" width="50" height="50" style="fill: none"/>
  <rect y="251.35" width="50" height="50" style="fill: none"/>
  <rect y="301.35" width="50" height="50" style="fill: none"/>
  <rect y="351.35" width="50" height="50" style="fill: none"/>
  <rect y="401.35" width="50" height="50" style="fill: none"/>
  <rect y="501.35" width="50" height="50" style="fill: none"/>
  <rect y="451.35" width="50" height="50" style="fill: none"/>
  <rect y="551.35" width="50" height="50" style="fill: none"/>
  <rect y="601.35" width="50" height="50" style="fill: none"/>
  <g>
    <rect x="50" y="1751.35" width="50" height="50" style="fill: none"/>
    <rect y="1751.35" width="50" height="50" style="fill: none"/>
    <rect x="100" y="1751.35" width="50" height="50" style="fill: none"/>
    <rect x="150" y="1751.35" width="50" height="50" style="fill: none"/>
    <rect x="200" y="1751.35" width="50" height="50" style="fill: none"/>
    <rect x="250" y="1751.35" width="50" height="50" style="fill: none"/>
    <rect x="300" y="1751.35" width="50" height="50" style="fill: none"/>
    <rect x="400" y="1751.35" width="50" height="50" style="fill: none"/>
    <rect x="350" y="1751.35" width="50" height="50" style="fill: none"/>
    <rect x="450" y="1751.35" width="50" height="50" style="fill: none"/>
    <rect x="500" y="1751.35" width="50" height="50" style="fill: none"/>
    <rect x="550" y="1751.35" width="50" height="50" style="fill: none"/>
    <rect x="600" y="1751.35" width="50" height="50" style="fill: none"/>
    <rect x="650" y="1751.35" width="50" height="50" style="fill: none"/>
    <rect x="700" y="1751.35" width="50" height="50" style="fill: none"/>
    <rect x="750" y="1751.35" width="50" height="50" style="fill: none"/>
    <rect x="1800" y="1751.35" width="50" height="50" style="fill: none"/>
    <rect x="850" y="1751.35" width="50" height="50" style="fill: none"/>
  </g>
</svg>
