<svg class="frame frame-5" xmlns="http://www.w3.org/2000/svg" preserveAspectRatio="xMidYMid meet" width="900" height="1800" viewBox="0 0 900 1800">
  <g>
    <rect class="plant-stalk" x="420.94" y="1301.35" width="49.98" height="49.99" style="fill: #94ca5d"/>
    <rect class="plant-stalk" x="420.94" y="1351.33" width="49.98" height="49.98" style="fill: #94ca5d"/>
    <rect class="plant-stalk" x="420.94" y="1401.32" width="49.98" height="49.98" style="fill: #94ca5d"/>
    <rect class="plant-stalk" x="470.93" y="1401.32" width="49.98" height="49.98" style="fill: #94ca5d"/>
    <rect class="plant-stalk" x="520.98" y="1401.32" width="49.98" height="49.98" style="fill: #94ca5d"/>
    <rect class="plant-stalk" x="520.98" y="1351.33" width="49.98" height="49.98" style="fill: #94ca5d"/>
    <rect class="plant-stalk" x="570.97" y="1351.33" width="49.98" height="49.98" style="fill: #94ca5d"/>
    <rect class="plant-stalk" x="620.95" y="1351.33" width="49.98" height="49.98" style="fill: #94ca5d"/>
    <rect class="plant-stalk" x="670.94" y="1351.33" width="49.98" height="49.98" style="fill: #94ca5d"/>
    <rect class="plant-stalk" x="670.94" y="1301.35" width="49.98" height="49.99" style="fill: #94ca5d"/>
    <rect class="plant-stalk" x="670.94" y="1251.36" width="49.98" height="49.99" style="fill: #94ca5d"/>
    <rect class="plant-stalk" x="420.94" y="1451.37" width="49.98" height="49.98" style="fill: #94ca5d"/>
    <rect class="plant-stalk" x="370.96" y="1451.37" width="49.98" height="49.98" style="fill: #94ca5d"/>
    <rect class="plant-stalk" x="320.9" y="1451.37" width="49.98" height="49.98" style="fill: #94ca5d"/>
    <rect class="plant-stalk" x="320.9" y="1401.32" width="49.98" height="49.98" style="fill: #94ca5d"/>
    <rect class="plant-stalk" x="270.92" y="1401.32" width="49.98" height="49.98" style="fill: #94ca5d"/>
    <rect class="plant-stalk" x="220.93" y="1401.32" width="49.98" height="49.98" style="fill: #94ca5d"/>
    <rect class="plant-stalk" x="220.93" y="1351.33" width="49.98" height="49.98" style="fill: #94ca5d"/>
    <rect class="plant-stalk" x="420.94" y="1501.36" width="49.98" height="49.98" style="fill: #94ca5d"/>
    <rect class="plant-stalk" x="420.94" y="1551.34" width="49.98" height="49.99" style="fill: #94ca5d"/>
    <rect class="plant-stalk" x="470.93" y="1551.34" width="49.98" height="49.99" style="fill: #94ca5d"/>
    <rect class="plant-stalk" x="370.96" y="1601.4" width="49.98" height="49.99" style="fill: #94ca5d"/>
    <rect class="plant-stalk" x="420.94" y="1601.4" width="49.98" height="49.99" style="fill: #94ca5d"/>
    <rect class="plant-stalk" x="420.94" y="1651.38" width="49.98" height="49.99" style="fill: #94ca5d"/>
    <rect class="plant-stalk" x="420.94" y="1701.37" width="49.98" height="49.99" style="fill: #94ca5d"/>
    <rect class="plant-stalk" x="420.94" y="1251.36" width="49.98" height="49.99" style="fill: #94ca5d"/>
    <rect class="plant-stalk" x="370.96" y="1251.36" width="49.98" height="49.99" style="fill: #94ca5d"/>
    <rect class="plant-stalk" x="420.94" y="1151.32" width="49.98" height="49.99" style="fill: #94ca5d"/>
    <rect class="plant-stalk" x="520.98" y="1151.32" width="49.98" height="49.99" style="fill: #94ca5d"/>
    <rect class="plant-stalk" x="520.98" y="1101.34" width="49.98" height="49.99" style="fill: #94ca5d"/>
    <rect class="plant-stalk" x="570.97" y="1101.34" width="49.98" height="49.99" style="fill: #94ca5d"/>
    <rect class="plant-stalk" x="570.97" y="1051.28" width="49.98" height="49.98" style="fill: #94ca5d"/>
    <rect class="plant-stalk" x="570.97" y="1001.3" width="49.98" height="49.98" style="fill: #94ca5d"/>
    <rect class="plant-stalk" x="620.95" y="1001.3" width="49.98" height="49.98" style="fill: #94ca5d"/>
    <rect class="plant-stalk" x="620.95" y="951.31" width="49.98" height="49.98" style="fill: #94ca5d"/>
    <rect class="plant-stalk" x="370.96" y="1201.31" width="49.98" height="49.99" style="fill: #94ca5d"/>
    <rect class="plant-stalk" x="370.96" y="1151.32" width="49.98" height="49.99" style="fill: #94ca5d"/>
    <rect class="plant-stalk" x="370.96" y="1101.34" width="49.98" height="49.99" style="fill: #94ca5d"/>
    <rect class="plant-stalk" x="370.96" y="1051.28" width="49.98" height="49.98" style="fill: #94ca5d"/>
    <rect class="plant-stalk" x="420.94" y="1051.28" width="49.98" height="49.98" style="fill: #94ca5d"/>
    <rect class="plant-stalk" x="420.94" y="1001.3" width="49.98" height="49.98" style="fill: #94ca5d"/>
    <rect class="plant-stalk" x="420.94" y="951.31" width="49.98" height="49.98" style="fill: #94ca5d"/>
    <rect class="plant-stalk" x="420.94" y="901.33" width="49.98" height="49.98" style="fill: #94ca5d"/>
    <rect class="plant-stalk" x="370.96" y="901.33" width="49.98" height="49.98" style="fill: #94ca5d"/>
    <rect class="plant-stalk" x="370.96" y="851.27" width="49.98" height="49.98" style="fill: #94ca5d"/>
    <rect class="plant-stalk" x="370.96" y="801.29" width="49.98" height="49.99" style="fill: #94ca5d"/>
    <rect class="plant-stalk" x="370.96" y="751.3" width="49.98" height="49.99" style="fill: #94ca5d"/>
    <g>
      <rect class="plant-flower" x="320.9" y="701.25" width="49.98" height="49.99" style="fill: #edefa4"/>
      <rect class="plant-flower" x="320.9" y="651.26" width="49.98" height="49.99" style="fill: #ffffff"/>
      <rect class="plant-flower" x="370.96" y="701.25" width="49.98" height="49.99" style="fill: #ffffff"/>
      <rect class="plant-flower" x="320.9" y="751.3" width="49.98" height="49.99" style="fill: #ffffff"/>
      <rect class="plant-flower" x="270.92" y="701.25" width="49.98" height="49.99" style="fill: #ffffff"/>
    </g>
    <g>
      <rect class="plant-flower" x="70.91" y="1101.34" width="49.98" height="49.99" style="fill: #edefa4"/>
      <rect class="plant-flower" x="70.91" y="1051.28" width="49.98" height="49.98" style="fill: #ffffff"/>
      <rect class="plant-flower" x="120.89" y="1101.34" width="49.98" height="49.99" style="fill: #ffffff"/>
      <rect class="plant-flower" x="70.91" y="1151.32" width="49.98" height="49.99" style="fill: #ffffff"/>
      <rect class="plant-flower" x="20.92" y="1101.34" width="49.98" height="49.99" style="fill: #ffffff"/>
    </g>
    <g>
      <rect class="plant-flower" x="170.95" y="1301.35" width="49.98" height="49.99" style="fill: #edefa4"/>
      <rect class="plant-flower" x="170.95" y="1251.36" width="49.98" height="49.99" style="fill: #ffffff"/>
      <rect class="plant-flower" x="220.93" y="1301.35" width="49.98" height="49.99" style="fill: #ffffff"/>
      <rect class="plant-flower" x="170.95" y="1351.33" width="49.98" height="49.98" style="fill: #ffffff"/>
      <rect class="plant-flower" x="120.89" y="1301.35" width="49.98" height="49.99" style="fill: #ffffff"/>
    </g>
    <g>
      <rect class="plant-flower" x="570.97" y="901.33" width="49.98" height="49.98" style="fill: #edefa4"/>
      <rect class="plant-flower" x="570.97" y="851.27" width="49.98" height="49.98" style="fill: #ffffff"/>
      <rect class="plant-flower" x="620.95" y="901.33" width="49.98" height="49.98" style="fill: #ffffff"/>
      <rect class="plant-flower" x="570.97" y="951.31" width="49.98" height="49.98" style="fill: #ffffff"/>
      <rect class="plant-flower" x="520.98" y="901.33" width="49.98" height="49.98" style="fill: #ffffff"/>
    </g>
    <g>
      <rect class="plant-flower" x="620.95" y="1210.41" width="49.98" height="49.99" style="fill: #edefa4"/>
      <rect class="plant-flower" x="620.95" y="1160.42" width="49.98" height="49.99" style="fill: #ffffff"/>
      <rect class="plant-flower" x="670.94" y="1210.41" width="49.98" height="49.99" style="fill: #ffffff"/>
      <rect class="plant-flower" x="620.95" y="1260.39" width="49.98" height="49.99" style="fill: #ffffff"/>
      <rect class="plant-flower" x="570.97" y="1210.41" width="49.98" height="49.99" style="fill: #ffffff"/>
    </g>
    <g>
      <rect class="plant-flower" x="170.95" y="801.29" width="49.98" height="49.99" style="fill: #edefa4"/>
      <rect class="plant-flower" x="170.95" y="751.3" width="49.98" height="49.99" style="fill: #ffffff"/>
      <rect class="plant-flower" x="220.93" y="801.29" width="49.98" height="49.99" style="fill: #ffffff"/>
      <rect class="plant-flower" x="170.95" y="851.27" width="49.98" height="49.98" style="fill: #ffffff"/>
      <rect class="plant-flower" x="120.89" y="801.29" width="49.98" height="49.99" style="fill: #ffffff"/>
    </g>
    <rect class="plant-stalk" x="320.9" y="1101.34" width="49.98" height="49.99" style="fill: #94ca5d"/>
    <rect class="plant-stalk" x="270.92" y="1051.28" width="49.98" height="49.98" style="fill: #94ca5d"/>
    <rect class="plant-stalk" x="220.93" y="1051.28" width="49.98" height="49.98" style="fill: #94ca5d"/>
    <rect class="plant-stalk" x="170.95" y="1051.28" width="49.98" height="49.98" style="fill: #94ca5d"/>
    <rect class="plant-stalk" x="170.95" y="1001.3" width="49.98" height="49.98" style="fill: #94ca5d"/>
    <rect class="plant-stalk" x="170.95" y="951.31" width="49.98" height="49.98" style="fill: #94ca5d"/>
    <rect class="plant-stalk" x="170.95" y="901.33" width="49.98" height="49.98" style="fill: #94ca5d"/>
    <rect class="plant-stalk" x="120.89" y="901.33" width="49.98" height="49.98" style="fill: #94ca5d"/>
    <rect class="plant-stalk" x="120.89" y="851.27" width="49.98" height="49.98" style="fill: #94ca5d"/>
    <rect class="plant-stalk" x="320.9" y="1251.36" width="49.98" height="49.99" style="fill: #94ca5d"/>
    <rect class="plant-stalk" x="270.92" y="1251.36" width="49.98" height="49.99" style="fill: #94ca5d"/>
    <rect class="plant-stalk" x="220.93" y="1251.36" width="49.98" height="49.99" style="fill: #94ca5d"/>
    <rect class="plant-stalk" x="220.93" y="1201.31" width="49.98" height="49.99" style="fill: #94ca5d"/>
    <rect class="plant-stalk" x="170.95" y="1201.31" width="49.98" height="49.99" style="fill: #94ca5d"/>
    <rect class="plant-stalk" x="120.89" y="1201.31" width="49.98" height="49.99" style="fill: #94ca5d"/>
    <rect class="plant-stalk" x="120.89" y="1151.32" width="49.98" height="49.99" style="fill: #94ca5d"/>
    <rect class="plant-stalk" x="270.92" y="1101.34" width="49.98" height="49.99" style="fill: #94ca5d"/>
    <rect class="plant-stalk" x="470.93" y="1151.32" width="49.98" height="49.99" style="fill: #94ca5d"/>
  </g>
  <rect y="1251.35" width="50" height="50" style="fill: none"/>
  <rect y="1201.35" width="50" height="50" style="fill: none"/>
  <rect y="1301.35" width="50" height="50" style="fill: none"/>
  <rect y="1351.35" width="50" height="50" style="fill: none"/>
  <rect y="1401.35" width="50" height="50" style="fill: none"/>
  <rect y="1451.35" width="50" height="50" style="fill: none"/>
  <rect y="1501.35" width="50" height="50" style="fill: none"/>
  <rect y="1601.35" width="50" height="50" style="fill: none"/>
  <rect y="1551.35" width="50" height="50" style="fill: none"/>
  <rect y="1651.35" width="50" height="50" style="fill: none"/>
  <rect y="1701.35" width="50" height="50" style="fill: none"/>
  <rect y="701.35" width="50" height="50" style="fill: none"/>
  <rect y="651.35" width="50" height="50" style="fill: none"/>
  <rect y="751.35" width="50" height="50" style="fill: none"/>
  <rect y="801.35" width="50" height="50" style="fill: none"/>
  <rect y="851.35" width="50" height="50" style="fill: none"/>
  <rect y="901.35" width="50" height="50" style="fill: none"/>
  <rect y="951.35" width="50" height="50" style="fill: none"/>
  <rect y="1051.35" width="50" height="50" style="fill: none"/>
  <rect y="1001.35" width="50" height="50" style="fill: none"/>
  <rect y="1101.35" width="50" height="50" style="fill: none"/>
  <rect y="1151.35" width="50" height="50" style="fill: none"/>
  <rect y="151.35" width="50" height="50" style="fill: none"/>
  <rect y="101.35" width="50" height="50" style="fill: none"/>
  <rect y="51.35" width="50" height="50" style="fill: none"/>
  <rect y="1.35" width="50" height="50" style="fill: none"/>
  <rect y="201.35" width="50" height="50" style="fill: none"/>
  <rect y="251.35" width="50" height="50" style="fill: none"/>
  <rect y="301.35" width="50" height="50" style="fill: none"/>
  <rect y="351.35" width="50" height="50" style="fill: none"/>
  <rect y="401.35" width="50" height="50" style="fill: none"/>
  <rect y="501.35" width="50" height="50" style="fill: none"/>
  <rect y="451.35" width="50" height="50" style="fill: none"/>
  <rect y="551.35" width="50" height="50" style="fill: none"/>
  <rect y="601.35" width="50" height="50" style="fill: none"/>
  <g>
    <rect x="50" y="1751.35" width="50" height="50" style="fill: none"/>
    <rect y="1751.35" width="50" height="50" style="fill: none"/>
    <rect x="100" y="1751.35" width="50" height="50" style="fill: none"/>
    <rect x="150" y="1751.35" width="50" height="50" style="fill: none"/>
    <rect x="200" y="1751.35" width="50" height="50" style="fill: none"/>
    <rect x="250" y="1751.35" width="50" height="50" style="fill: none"/>
    <rect x="300" y="1751.35" width="50" height="50" style="fill: none"/>
    <rect x="400" y="1751.35" width="50" height="50" style="fill: none"/>
    <rect x="350" y="1751.35" width="50" height="50" style="fill: none"/>
    <rect x="450" y="1751.35" width="50" height="50" style="fill: none"/>
    <rect x="500" y="1751.35" width="50" height="50" style="fill: none"/>
    <rect x="550" y="1751.35" width="50" height="50" style="fill: none"/>
    <rect x="600" y="1751.35" width="50" height="50" style="fill: none"/>
    <rect x="650" y="1751.35" width="50" height="50" style="fill: none"/>
    <rect x="700" y="1751.35" width="50" height="50" style="fill: none"/>
    <rect x="750" y="1751.35" width="50" height="50" style="fill: none"/>
    <rect x="1800" y="1751.35" width="50" height="50" style="fill: none"/>
    <rect x="850" y="1751.35" width="50" height="50" style="fill: none"/>
  </g>
</svg>
