<svg class="frame frame-6" xmlns="http://www.w3.org/2000/svg" preserveAspectRatio="xMidYMid meet" width="900" height="1800" viewBox="0 0 900 1800">
  <rect class="plant-stalk" x="420.03" y="1301.32" width="49.98" height="49.98" style="fill: #94ca5d"/>
  <rect class="plant-stalk" x="420.03" y="1351.37" width="49.98" height="49.98" style="fill: #94ca5d"/>
  <rect class="plant-stalk" x="420.03" y="1401.35" width="49.98" height="49.98" style="fill: #94ca5d"/>
  <rect class="plant-stalk" x="470.01" y="1401.35" width="49.98" height="49.98" style="fill: #94ca5d"/>
  <rect class="plant-stalk" x="519.99" y="1401.35" width="49.98" height="49.98" style="fill: #94ca5d"/>
  <rect class="plant-stalk" x="519.99" y="1351.37" width="49.98" height="49.98" style="fill: #94ca5d"/>
  <rect class="plant-stalk" x="569.97" y="1351.37" width="49.98" height="49.98" style="fill: #94ca5d"/>
  <rect class="plant-stalk" x="620.02" y="1351.37" width="49.98" height="49.98" style="fill: #94ca5d"/>
  <rect class="plant-stalk" x="620.02" y="1301.32" width="49.98" height="49.98" style="fill: #94ca5d"/>
  <rect class="plant-stalk" x="620.02" y="1251.33" width="49.98" height="49.98" style="fill: #94ca5d"/>
  <rect class="plant-stalk" x="670" y="1251.33" width="49.98" height="49.98" style="fill: #94ca5d"/>
  <rect class="plant-stalk" x="670" y="1201.35" width="49.98" height="49.98" style="fill: #94ca5d"/>
  <rect class="plant-stalk" x="670" y="1151.37" width="49.98" height="49.98" style="fill: #94ca5d"/>
  <rect class="plant-stalk" x="719.99" y="1151.37" width="49.98" height="49.98" style="fill: #94ca5d"/>
  <rect class="plant-stalk" x="770.04" y="1151.37" width="49.98" height="49.98" style="fill: #94ca5d"/>
  <rect class="plant-stalk" x="420.03" y="1451.33" width="49.98" height="49.98" style="fill: #94ca5d"/>
  <rect class="plant-stalk" x="369.97" y="1451.33" width="49.98" height="49.98" style="fill: #94ca5d"/>
  <rect class="plant-stalk" x="319.99" y="1451.33" width="49.98" height="49.98" style="fill: #94ca5d"/>
  <rect class="plant-stalk" x="319.99" y="1401.35" width="49.98" height="49.98" style="fill: #94ca5d"/>
  <rect class="plant-stalk" x="270.01" y="1401.35" width="49.98" height="49.98" style="fill: #94ca5d"/>
  <rect class="plant-stalk" x="219.96" y="1401.35" width="49.98" height="49.98" style="fill: #94ca5d"/>
  <rect class="plant-stalk" x="219.96" y="1351.37" width="49.98" height="49.98" style="fill: #94ca5d"/>
  <rect class="plant-stalk" x="169.98" y="1351.37" width="49.98" height="49.98" style="fill: #94ca5d"/>
  <rect class="plant-stalk" x="120" y="1351.37" width="49.98" height="49.98" style="fill: #94ca5d"/>
  <rect class="plant-stalk" x="420.03" y="1501.38" width="49.98" height="49.98" style="fill: #94ca5d"/>
  <rect class="plant-stalk" x="420.03" y="1551.36" width="49.98" height="49.98" style="fill: #94ca5d"/>
  <rect class="plant-stalk" x="470.01" y="1551.36" width="49.98" height="49.98" style="fill: #94ca5d"/>
  <rect class="plant-stalk" x="369.97" y="1601.35" width="49.98" height="49.98" style="fill: #94ca5d"/>
  <rect class="plant-stalk" x="420.03" y="1601.35" width="49.98" height="49.98" style="fill: #94ca5d"/>
  <rect class="plant-stalk" x="420.03" y="1651.33" width="49.98" height="49.98" style="fill: #94ca5d"/>
  <rect class="plant-stalk" x="420.03" y="1701.38" width="49.98" height="49.98" style="fill: #94ca5d"/>
  <rect class="plant-stalk" x="420.03" y="1251.33" width="49.98" height="49.98" style="fill: #94ca5d"/>
  <rect class="plant-stalk" x="369.97" y="1251.33" width="49.98" height="49.98" style="fill: #94ca5d"/>
  <rect class="plant-stalk" x="420.03" y="1151.37" width="49.98" height="49.98" style="fill: #94ca5d"/>
  <rect class="plant-stalk" x="519.99" y="1151.37" width="49.98" height="49.98" style="fill: #94ca5d"/>
  <rect class="plant-stalk" x="519.99" y="1101.32" width="49.98" height="49.98" style="fill: #94ca5d"/>
  <rect class="plant-stalk" x="569.97" y="1101.32" width="49.98" height="49.98" style="fill: #94ca5d"/>
  <rect class="plant-stalk" x="569.97" y="1051.34" width="49.98" height="49.98" style="fill: #94ca5d"/>
  <rect class="plant-stalk" x="569.97" y="1001.36" width="49.98" height="49.98" style="fill: #94ca5d"/>
  <rect class="plant-stalk" x="620.02" y="1001.36" width="49.98" height="49.98" style="fill: #94ca5d"/>
  <rect class="plant-stalk" x="620.02" y="951.31" width="49.98" height="49.98" style="fill: #94ca5d"/>
  <rect class="plant-stalk" x="620.02" y="901.32" width="49.98" height="49.98" style="fill: #94ca5d"/>
  <rect class="plant-stalk" x="670" y="901.32" width="49.98" height="49.98" style="fill: #94ca5d"/>
  <rect class="plant-stalk" x="719.99" y="901.32" width="49.98" height="49.98" style="fill: #94ca5d"/>
  <rect class="plant-stalk" x="369.97" y="1201.35" width="49.98" height="49.98" style="fill: #94ca5d"/>
  <rect class="plant-stalk" x="369.97" y="1151.37" width="49.98" height="49.98" style="fill: #94ca5d"/>
  <rect class="plant-stalk" x="369.97" y="1101.32" width="49.98" height="49.98" style="fill: #94ca5d"/>
  <rect class="plant-stalk" x="369.97" y="1051.34" width="49.98" height="49.98" style="fill: #94ca5d"/>
  <rect class="plant-stalk" x="420.03" y="1051.34" width="49.98" height="49.98" style="fill: #94ca5d"/>
  <rect class="plant-stalk" x="420.03" y="1001.36" width="49.98" height="49.98" style="fill: #94ca5d"/>
  <rect class="plant-stalk" x="420.03" y="951.31" width="49.98" height="49.98" style="fill: #94ca5d"/>
  <rect class="plant-stalk" x="420.03" y="901.32" width="49.98" height="49.98" style="fill: #94ca5d"/>
  <rect class="plant-stalk" x="469.97" y="901.39" width="49.98" height="49.98" style="fill: #94ca5d"/>
  <rect class="plant-stalk" x="469.97" y="851.34" width="49.98" height="49.98" style="fill: #94ca5d"/>
  <rect class="plant-stalk" x="469.97" y="801.36" width="49.98" height="49.98" style="fill: #94ca5d"/>
  <rect class="plant-stalk" x="469.97" y="751.31" width="49.98" height="49.98" style="fill: #94ca5d"/>
  <rect class="plant-stalk" x="469.97" y="701.33" width="49.98" height="49.98" style="fill: #94ca5d"/>
  <rect class="plant-stalk" x="469.97" y="651.35" width="49.98" height="49.98" style="fill: #94ca5d"/>
  <rect class="plant-stalk" x="419.99" y="651.35" width="49.98" height="49.98" style="fill: #94ca5d"/>
  <rect class="plant-stalk" x="370.01" y="651.35" width="49.98" height="49.98" style="fill: #94ca5d"/>
  <rect class="plant-stalk" x="319.99" y="1101.32" width="49.98" height="49.98" style="fill: #94ca5d"/>
  <rect class="plant-stalk" x="270.01" y="1051.34" width="49.98" height="49.98" style="fill: #94ca5d"/>
  <rect class="plant-stalk" x="270.08" y="1001.36" width="49.98" height="49.98" style="fill: #94ca5d"/>
  <rect class="plant-stalk" x="220.03" y="1001.36" width="49.98" height="49.98" style="fill: #94ca5d"/>
  <rect class="plant-stalk" x="269.94" y="901.32" width="49.98" height="49.98" style="fill: #94ca5d"/>
  <rect class="plant-stalk" x="220.03" y="951.31" width="49.98" height="49.98" style="fill: #94ca5d"/>
  <rect class="plant-stalk" x="219.99" y="901.39" width="49.98" height="49.98" style="fill: #94ca5d"/>
  <rect class="plant-stalk" x="219.99" y="851.41" width="49.98" height="49.98" style="fill: #94ca5d"/>
  <rect class="plant-stalk" x="219.99" y="801.43" width="49.98" height="49.98" style="fill: #94ca5d"/>
  <rect class="plant-stalk" x="170.01" y="801.43" width="49.98" height="49.98" style="fill: #94ca5d"/>
  <rect class="plant-stalk" x="119.96" y="801.43" width="49.98" height="49.98" style="fill: #94ca5d"/>
  <g>
    <rect class="plant-fruit" x="20" y="1151.41" width="49.98" height="49.98" style="fill: #de6683"/>
    <rect class="plant-fruit" x="69.98" y="1151.41" width="49.98" height="49.98" style="fill: #c13b54"/>
    <rect class="plant-fruit" x="119.96" y="1151.41" width="49.98" height="49.98" style="fill: #c13b54"/>
    <rect class="plant-fruit" x="20" y="1201.39" width="49.98" height="49.98" style="fill: #c13b54"/>
    <rect class="plant-fruit" x="69.98" y="1201.39" width="49.98" height="49.98" style="fill: #c13b54"/>
    <rect class="plant-fruit" x="119.96" y="1201.39" width="49.98" height="49.98" style="fill: #c13b54"/>
    <rect class="plant-fruit" x="20" y="1251.37" width="49.98" height="49.98" style="fill: #c13b54"/>
    <rect class="plant-fruit" x="69.98" y="1251.37" width="49.98" height="49.98" style="fill: #c13b54"/>
    <rect class="plant-fruit" x="119.96" y="1251.37" width="49.98" height="49.98" style="fill: #c13b54"/>
  </g>
  <g>
    <rect class="plant-fruit" x="70.01" y="1401.35" width="49.98" height="49.98" style="fill: #de6683"/>
    <rect class="plant-fruit" x="120" y="1401.35" width="49.98" height="49.98" style="fill: #c13b54"/>
    <rect class="plant-fruit" x="169.98" y="1401.35" width="49.98" height="49.98" style="fill: #c13b54"/>
    <rect class="plant-fruit" x="70.01" y="1451.33" width="49.98" height="49.98" style="fill: #c13b54"/>
    <rect class="plant-fruit" x="120" y="1451.33" width="49.98" height="49.98" style="fill: #c13b54"/>
    <rect class="plant-fruit" x="169.98" y="1451.33" width="49.98" height="49.98" style="fill: #c13b54"/>
    <rect class="plant-fruit" x="70.01" y="1501.38" width="49.98" height="49.98" style="fill: #c13b54"/>
    <rect class="plant-fruit" x="120" y="1501.38" width="49.98" height="49.98" style="fill: #c13b54"/>
    <rect class="plant-fruit" x="169.98" y="1501.38" width="49.98" height="49.98" style="fill: #c13b54"/>
  </g>
  <g>
    <rect class="plant-fruit" x="319.96" y="701.33" width="49.98" height="49.98" style="fill: #de6683"/>
    <rect class="plant-fruit" x="370.01" y="701.33" width="49.98" height="49.98" style="fill: #c13b54"/>
    <rect class="plant-fruit" x="419.99" y="701.33" width="49.98" height="49.98" style="fill: #c13b54"/>
    <rect class="plant-fruit" x="319.96" y="751.31" width="49.98" height="49.98" style="fill: #c13b54"/>
    <rect class="plant-fruit" x="370.01" y="751.31" width="49.98" height="49.98" style="fill: #c13b54"/>
    <rect class="plant-fruit" x="419.99" y="751.31" width="49.98" height="49.98" style="fill: #c13b54"/>
    <rect class="plant-fruit" x="319.96" y="801.36" width="49.98" height="49.98" style="fill: #c13b54"/>
    <rect class="plant-fruit" x="370.01" y="801.36" width="49.98" height="49.98" style="fill: #c13b54"/>
    <rect class="plant-fruit" x="419.99" y="801.36" width="49.98" height="49.98" style="fill: #c13b54"/>
  </g>
  <g>
    <rect class="plant-fruit" x="670" y="951.31" width="49.98" height="49.98" style="fill: #de6683"/>
    <rect class="plant-fruit" x="719.99" y="951.31" width="49.98" height="49.98" style="fill: #c13b54"/>
    <rect class="plant-fruit" x="770.04" y="951.31" width="49.98" height="49.98" style="fill: #c13b54"/>
    <rect class="plant-fruit" x="670" y="1001.36" width="49.98" height="49.98" style="fill: #c13b54"/>
    <rect class="plant-fruit" x="719.99" y="1001.36" width="49.98" height="49.98" style="fill: #c13b54"/>
    <rect class="plant-fruit" x="770.04" y="1001.36" width="49.98" height="49.98" style="fill: #c13b54"/>
    <rect class="plant-fruit" x="670" y="1051.34" width="49.98" height="49.98" style="fill: #c13b54"/>
    <rect class="plant-fruit" x="719.99" y="1051.34" width="49.98" height="49.98" style="fill: #c13b54"/>
    <rect class="plant-fruit" x="770.04" y="1051.34" width="49.98" height="49.98" style="fill: #c13b54"/>
  </g>
  <g>
    <rect class="plant-fruit" x="719.99" y="1201.35" width="49.98" height="49.98" style="fill: #de6683"/>
    <rect class="plant-fruit" x="770.04" y="1201.35" width="49.98" height="49.98" style="fill: #c13b54"/>
    <rect class="plant-fruit" x="820.02" y="1201.35" width="49.98" height="49.98" style="fill: #c13b54"/>
    <rect class="plant-fruit" x="719.99" y="1251.33" width="49.98" height="49.98" style="fill: #c13b54"/>
    <rect class="plant-fruit" x="770.04" y="1251.33" width="49.98" height="49.98" style="fill: #c13b54"/>
    <rect class="plant-fruit" x="820.02" y="1251.33" width="49.98" height="49.98" style="fill: #c13b54"/>
    <rect class="plant-fruit" x="719.99" y="1301.32" width="49.98" height="49.98" style="fill: #c13b54"/>
    <rect class="plant-fruit" x="770.04" y="1301.32" width="49.98" height="49.98" style="fill: #c13b54"/>
    <rect class="plant-fruit" x="820.02" y="1301.32" width="49.98" height="49.98" style="fill: #c13b54"/>
  </g>
  <rect class="plant-stalk" x="319.99" y="1251.33" width="49.98" height="49.98" style="fill: #94ca5d"/>
  <rect class="plant-stalk" x="270.01" y="1251.33" width="49.98" height="49.98" style="fill: #94ca5d"/>
  <rect class="plant-stalk" x="219.96" y="1251.33" width="49.98" height="49.98" style="fill: #94ca5d"/>
  <rect class="plant-stalk" x="219.96" y="1201.35" width="49.98" height="49.98" style="fill: #94ca5d"/>
  <rect class="plant-stalk" x="169.98" y="1201.35" width="49.98" height="49.98" style="fill: #94ca5d"/>
  <rect class="plant-stalk" x="170.05" y="1151.34" width="49.98" height="49.98" style="fill: #94ca5d"/>
  <rect class="plant-stalk" x="170.05" y="1101.39" width="49.98" height="49.98" style="fill: #94ca5d"/>
  <rect class="plant-stalk" x="119.96" y="1101.35" width="49.98" height="49.98" style="fill: #94ca5d"/>
  <rect class="plant-stalk" x="69.98" y="1101.35" width="49.98" height="49.98" style="fill: #94ca5d"/>
  <rect class="plant-stalk" x="270.01" y="1101.32" width="49.98" height="49.98" style="fill: #94ca5d"/>
  <rect class="plant-stalk" x="470.01" y="1151.37" width="49.98" height="49.98" style="fill: #94ca5d"/>
  <rect y="1251.35" width="50" height="50" style="fill: none"/>
  <rect y="1201.35" width="50" height="50" style="fill: none"/>
  <rect y="1301.35" width="50" height="50" style="fill: none"/>
  <rect y="1351.35" width="50" height="50" style="fill: none"/>
  <rect y="1401.35" width="50" height="50" style="fill: none"/>
  <rect y="1451.35" width="50" height="50" style="fill: none"/>
  <rect y="1501.35" width="50" height="50" style="fill: none"/>
  <rect y="1601.35" width="50" height="50" style="fill: none"/>
  <rect y="1551.35" width="50" height="50" style="fill: none"/>
  <rect y="1651.35" width="50" height="50" style="fill: none"/>
  <rect y="1701.35" width="50" height="50" style="fill: none"/>
  <rect y="701.35" width="50" height="50" style="fill: none"/>
  <rect y="651.35" width="50" height="50" style="fill: none"/>
  <rect y="751.35" width="50" height="50" style="fill: none"/>
  <rect y="801.35" width="50" height="50" style="fill: none"/>
  <rect y="851.35" width="50" height="50" style="fill: none"/>
  <rect y="901.35" width="50" height="50" style="fill: none"/>
  <rect y="951.35" width="50" height="50" style="fill: none"/>
  <rect y="1051.35" width="50" height="50" style="fill: none"/>
  <rect y="1001.35" width="50" height="50" style="fill: none"/>
  <rect y="1101.35" width="50" height="50" style="fill: none"/>
  <rect y="1151.35" width="50" height="50" style="fill: none"/>
  <rect y="151.35" width="50" height="50" style="fill: none"/>
  <rect y="101.35" width="50" height="50" style="fill: none"/>
  <rect y="51.35" width="50" height="50" style="fill: none"/>
  <rect y="1.35" width="50" height="50" style="fill: none"/>
  <rect y="201.35" width="50" height="50" style="fill: none"/>
  <rect y="251.35" width="50" height="50" style="fill: none"/>
  <rect y="301.35" width="50" height="50" style="fill: none"/>
  <rect y="351.35" width="50" height="50" style="fill: none"/>
  <rect y="401.35" width="50" height="50" style="fill: none"/>
  <rect y="501.35" width="50" height="50" style="fill: none"/>
  <rect y="451.35" width="50" height="50" style="fill: none"/>
  <rect y="551.35" width="50" height="50" style="fill: none"/>
  <rect y="601.35" width="50" height="50" style="fill: none"/>
  <g>
    <rect x="50" y="1751.35" width="50" height="50" style="fill: none"/>
    <rect y="1751.35" width="50" height="50" style="fill: none"/>
    <rect x="100" y="1751.35" width="50" height="50" style="fill: none"/>
    <rect x="150" y="1751.35" width="50" height="50" style="fill: none"/>
    <rect x="200" y="1751.35" width="50" height="50" style="fill: none"/>
    <rect x="250" y="1751.35" width="50" height="50" style="fill: none"/>
    <rect x="300" y="1751.35" width="50" height="50" style="fill: none"/>
    <rect x="400" y="1751.35" width="50" height="50" style="fill: none"/>
    <rect x="350" y="1751.35" width="50" height="50" style="fill: none"/>
    <rect x="450" y="1751.35" width="50" height="50" style="fill: none"/>
    <rect x="500" y="1751.35" width="50" height="50" style="fill: none"/>
    <rect x="550" y="1751.35" width="50" height="50" style="fill: none"/>
    <rect x="600" y="1751.35" width="50" height="50" style="fill: none"/>
    <rect x="650" y="1751.35" width="50" height="50" style="fill: none"/>
    <rect x="700" y="1751.35" width="50" height="50" style="fill: none"/>
    <rect x="750" y="1751.35" width="50" height="50" style="fill: none"/>
    <rect x="1800" y="1751.35" width="50" height="50" style="fill: none"/>
    <rect x="850" y="1751.35" width="50" height="50" style="fill: none"/>
  </g>
  <g>
    <rect class="plant-fruit" x="69.94" y="851.41" width="49.98" height="49.98" style="fill: #de6683"/>
    <rect class="plant-fruit" x="119.93" y="851.41" width="49.98" height="49.98" style="fill: #c13b54"/>
    <rect class="plant-fruit" x="169.98" y="851.41" width="49.98" height="49.98" style="fill: #c13b54"/>
    <rect class="plant-fruit" x="69.94" y="901.39" width="49.98" height="49.98" style="fill: #c13b54"/>
    <rect class="plant-fruit" x="119.93" y="901.39" width="49.98" height="49.98" style="fill: #c13b54"/>
    <rect class="plant-fruit" x="169.98" y="901.39" width="49.98" height="49.98" style="fill: #c13b54"/>
    <rect class="plant-fruit" x="69.94" y="951.38" width="49.98" height="49.98" style="fill: #c13b54"/>
    <rect class="plant-fruit" x="119.93" y="951.38" width="49.98" height="49.98" style="fill: #c13b54"/>
    <rect class="plant-fruit" x="169.98" y="951.38" width="49.98" height="49.98" style="fill: #c13b54"/>
  </g>
</svg>
